<svg width="232" height="149" viewBox="0 0 232 149" fill="none" xmlns="http://www.w3.org/2000/svg">
<rect width="232" height="148.595" rx="25" fill="#4D0E12"/>
<rect x="12.1289" y="23.1592" width="209.319" height="89.2678" fill="#9CC7E8"/>
<path d="M20.1492 14.1284C20.8954 13.4047 21.8942 13 22.9337 13H214.092C215.135 13 216.136 13.407 216.883 14.1344L219.427 16.6115C222.001 19.1188 220.22 23.4854 216.627 23.4771L20.8383 23.0228C17.2494 23.0145 15.4865 18.6496 18.063 16.1512L20.1492 14.1284Z" fill="#82BCE8"/>
<g opacity="0.8">
<path d="M185.855 67.8293C185.855 78.5082 180.603 87.9386 169.12 87.9386C169.12 76.1437 169.12 78.5082 169.12 67.8293C169.12 57.1504 169.12 60.0949 169.12 49.2668C180.603 49.2668 185.855 58.9348 185.855 67.8293Z" fill="#CCE3F5"/>
<path d="M47.9225 67.8293C47.9225 78.5082 52.458 87.9386 62.375 87.9386C62.375 76.1437 62.375 78.5082 62.375 67.8293C62.375 57.1504 62.375 60.0949 62.375 49.2668C52.458 49.2668 47.9226 58.9348 47.9225 67.8293Z" fill="#CCE3F5"/>
<rect x="62.375" y="49.2668" width="106.745" height="38.6718" fill="#CCE3F5"/>
</g>
<ellipse cx="15.8272" cy="19.8292" rx="4.32332" ry="4.24763" fill="#010000"/>
<ellipse cx="222.606" cy="138.52" rx="4.32332" ry="4.24763" fill="black"/>
<ellipse cx="119.587" cy="122.743" rx="4.32332" ry="4.24763" fill="black"/>
<ellipse cx="191.231" cy="138.52" rx="4.32332" ry="4.24763" fill="#564E4E"/>
<ellipse cx="48.1905" cy="138.52" rx="4.32332" ry="4.24763" fill="#574F4F"/>
<ellipse cx="16.5684" cy="138.52" rx="4.32332" ry="4.24763" fill="#010000"/>
<ellipse cx="222.606" cy="19.5865" rx="4.32332" ry="4.24763" fill="#010000"/>
<g filter="url(#filter0_g_163_572)">
<path d="M219.529 135.998C218.148 135.99 217.022 137.103 217.014 138.483C217.005 139.864 218.118 140.99 219.498 140.998L219.514 138.498L219.529 135.998ZM226.173 141.038C227.554 141.046 228.68 139.934 228.688 138.553C228.697 137.172 227.585 136.046 226.204 136.038L226.188 138.538L226.173 141.038ZM219.514 138.498L219.498 140.998L226.173 141.038L226.188 138.538L226.204 136.038L219.529 135.998L219.514 138.498Z" fill="#D9D8D8"/>
</g>
<g filter="url(#filter1_g_163_572)">
<path d="M123.89 121.751C124.768 120.685 124.604 119.125 123.523 118.265C122.443 117.406 120.855 117.573 119.977 118.639L121.934 120.195L123.89 121.751ZM115.777 123.736C114.899 124.801 115.063 126.362 116.144 127.221C117.225 128.081 118.812 127.914 119.69 126.848L117.734 125.292L115.777 123.736ZM121.934 120.195L119.977 118.639L115.777 123.736L117.734 125.292L119.69 126.848L123.89 121.751L121.934 120.195Z" fill="#D9D8D8"/>
</g>
<g filter="url(#filter2_g_163_572)">
<path d="M14.7806 134.917C13.513 134.37 12.0284 134.948 11.4646 136.208C10.9008 137.468 11.4713 138.934 12.7389 139.481L13.7598 137.199L14.7806 134.917ZM18.8496 142.12C20.1172 142.667 21.6018 142.089 22.1656 140.829C22.7294 139.568 22.1589 138.103 20.8913 137.556L19.8705 139.838L18.8496 142.12ZM13.7598 137.199L12.7389 139.481L18.8496 142.12L19.8705 139.838L20.8913 137.556L14.7806 134.917L13.7598 137.199Z" fill="#D9D8D8"/>
</g>
<g filter="url(#filter3_g_163_572)">
<path d="M13.3681 22.1097C13.1188 22.4404 13.1882 22.9061 13.5232 23.1498C13.8581 23.3935 14.3318 23.3229 14.5811 22.9921L13.9746 22.5509L13.3681 22.1097ZM18.5534 17.7219C18.8027 17.3911 18.7333 16.9254 18.3984 16.6817C18.0634 16.438 17.5898 16.5086 17.3405 16.8394L17.9469 17.2807L18.5534 17.7219ZM13.9746 22.5509L14.5811 22.9921L18.5534 17.7219L17.9469 17.2807L17.3405 16.8394L13.3681 22.1097L13.9746 22.5509Z" fill="#D9D8D8"/>
</g>
<g filter="url(#filter4_g_163_572)">
<path d="M225.229 16.5503C225.227 15.1696 224.107 14.0513 222.726 14.0526C221.346 14.0538 220.227 15.174 220.229 16.5548L222.729 16.5526L225.229 16.5503ZM220.235 23.1127C220.236 24.4935 221.356 25.6117 222.737 25.6105C224.118 25.6093 225.236 24.489 225.235 23.1083L222.735 23.1105L220.235 23.1127ZM222.729 16.5526L220.229 16.5548L220.235 23.1127L222.735 23.1105L225.235 23.1083L225.229 16.5503L222.729 16.5526Z" fill="#D9D8D8"/>
</g>
<rect x="87.4756" y="123.697" width="6.8459" height="6.09213" rx="3" fill="#010000"/>
<rect x="139.2" y="123.697" width="6.8459" height="6.09213" rx="3" fill="#010000"/>
<path d="M162.527 54.2697C170.505 54.2699 176.986 60.8564 176.986 69.0001C176.986 77.1438 170.504 83.7304 162.527 83.7306C154.55 83.7306 148.067 77.1439 148.067 69.0001C148.067 60.8563 154.55 54.2697 162.527 54.2697Z" fill="#D9D9D9" stroke="#1A0905"/>
<path d="M165.131 54.9602C162.405 58.1187 162.63 62.9559 165.634 65.7643C168.637 68.5728 173.282 68.289 176.008 65.1306L170.569 60.0454L165.131 54.9602ZM176.675 64.3579L181.61 58.639L170.733 48.4686L165.798 54.1876L171.236 59.2727L176.675 64.3579ZM170.569 60.0454L176.008 65.1306L176.675 64.3579L171.236 59.2727L165.798 54.1876L165.131 54.9602L170.569 60.0454Z" fill="#1A0905"/>
<path d="M174.451 61.799C170.321 61.7552 166.986 65.0868 167.003 69.2403C167.019 73.3938 170.381 76.7963 174.512 76.8401L174.482 69.3195L174.451 61.799ZM175.508 76.8506L182.987 76.9298L182.926 61.8887L175.447 61.8095L175.477 69.3301L175.508 76.8506ZM174.482 69.3195L174.512 76.8401L175.508 76.8506L175.477 69.3301L175.447 61.8095L174.451 61.799L174.482 69.3195Z" fill="#1A0905"/>
<path d="M169.802 56.1494C169.872 60.2927 166.573 63.7319 162.434 63.831C158.295 63.9302 154.883 60.6517 154.813 56.5084L162.307 56.3289L169.802 56.1494ZM154.805 56.0681L154.678 48.5659L169.668 48.207L169.794 55.7091L162.3 55.8886L154.805 56.0681ZM162.307 56.3289L154.813 56.5084L154.805 56.0681L162.3 55.8886L169.794 55.7091L169.802 56.1494L162.307 56.3289Z" fill="#1A0905"/>
<path d="M149.936 61.6573C154.076 61.5841 157.468 64.8841 157.512 69.0279C157.557 73.1717 154.237 76.5903 150.097 76.6634L150.017 69.1603L149.936 61.6573ZM149.676 76.6708L142.18 76.8033L142.02 61.7971L149.515 61.6647L149.595 69.1678L149.676 76.6708ZM150.017 69.1603L150.097 76.6634L149.676 76.6708L149.595 69.1678L149.515 61.6647L149.936 61.6573L150.017 69.1603Z" fill="#1A0905"/>
<path d="M154.795 82.1769C154.731 78.0335 158.035 74.5996 162.174 74.507C166.314 74.4144 169.721 77.6983 169.785 81.8417L162.29 82.0093L154.795 82.1769ZM169.792 82.282L169.908 89.7842L154.918 90.1195L154.802 82.6172L162.297 82.4496L169.792 82.282ZM162.29 82.0093L169.785 81.8417L169.792 82.282L162.297 82.4496L154.802 82.6172L154.795 82.1769L162.29 82.0093Z" fill="#1A0905"/>
<path d="M164.586 83.6296C162.119 80.2881 162.725 75.4765 165.94 72.8825C169.155 70.2886 173.761 70.8945 176.228 74.236L170.407 78.9328L164.586 83.6296ZM176.485 74.5847L180.952 80.6349L169.31 90.0285L164.843 83.9783L170.664 79.2815L176.485 74.5847ZM170.407 78.9328L176.228 74.236L176.485 74.5847L170.664 79.2815L164.843 83.9783L164.586 83.6296L170.407 78.9328Z" fill="#1A0905"/>
<path d="M148.946 74.0838C151.488 70.8268 156.115 70.3648 159.281 73.0518C162.448 75.7388 162.954 80.5574 160.412 83.8143L154.679 78.949L148.946 74.0838ZM160.146 84.1556L155.544 90.0528L144.077 80.3223L148.679 74.4251L154.413 79.2903L160.146 84.1556ZM154.679 78.949L160.412 83.8143L160.146 84.1556L154.413 79.2903L148.679 74.4251L148.946 74.0838L154.679 78.949Z" fill="#1A0905"/>
<path d="M159.781 54.425C162.409 57.6421 162.041 62.4785 158.958 65.2273C155.876 67.9761 151.246 67.5965 148.618 64.3793L154.2 59.4022L159.781 54.425ZM148.345 64.0443L143.586 58.2192L154.749 48.2648L159.507 54.09L153.926 59.0671L148.345 64.0443ZM154.2 59.4022L148.618 64.3793L148.345 64.0443L153.926 59.0671L159.507 54.09L159.781 54.425L154.2 59.4022Z" fill="#1A0905"/>
<path d="M70.2344 54.2697C78.2116 54.2699 84.6934 60.8564 84.6934 69.0001C84.6933 77.1438 78.2115 83.7304 70.2344 83.7306C62.257 83.7306 55.7745 77.1439 55.7744 69.0001C55.7744 60.8563 62.257 54.2697 70.2344 54.2697Z" fill="#D9D9D9" stroke="#1A0905"/>
<path d="M72.8382 54.9602C70.1123 58.1187 70.3374 62.9559 73.3409 65.7643C76.3444 68.5728 80.989 68.289 83.7148 65.1306L78.2765 60.0454L72.8382 54.9602ZM84.3816 64.3579L89.3172 58.639L78.4405 48.4686L73.505 54.1876L78.9433 59.2727L84.3816 64.3579ZM78.2765 60.0454L83.7148 65.1306L84.3816 64.3579L78.9433 59.2727L73.505 54.1876L72.8382 54.9602L78.2765 60.0454Z" fill="#1A0905"/>
<path d="M82.1581 61.799C78.0276 61.7553 74.6928 65.0869 74.7097 69.2404C74.7265 73.3939 78.0885 76.7964 82.219 76.8401L82.1886 69.3195L82.1581 61.799ZM83.2148 76.8506L90.6937 76.9298L90.6328 61.8887L83.1539 61.8095L83.1844 69.3301L83.2148 76.8506ZM82.1886 69.3195L82.219 76.8401L83.2148 76.8506L83.1844 69.3301L83.1539 61.8095L82.1581 61.799L82.1886 69.3195Z" fill="#1A0905"/>
<path d="M77.5089 56.1494C77.579 60.2927 74.2803 63.7319 70.1412 63.831C66.002 63.9302 62.5897 60.6517 62.5196 56.5084L70.0143 56.3289L77.5089 56.1494ZM62.5122 56.0681L62.3853 48.5659L77.3745 48.207L77.5014 55.7091L70.0068 55.8886L62.5122 56.0681ZM70.0143 56.3289L62.5196 56.5084L62.5122 56.0681L70.0068 55.8886L77.5014 55.7091L77.5089 56.1494L70.0143 56.3289Z" fill="#1A0905"/>
<path d="M57.6445 61.6573C61.784 61.5841 65.1758 64.8841 65.2202 69.0279C65.2645 73.1717 61.9447 76.5903 57.8052 76.6634L57.7248 69.1603L57.6445 61.6573ZM57.3837 76.6708L49.8884 76.8033L49.7277 61.7971L57.223 61.6647L57.3034 69.1678L57.3837 76.6708ZM57.7248 69.1603L57.8052 76.6634L57.3837 76.6708L57.3034 69.1678L57.223 61.6647L57.6445 61.6573L57.7248 69.1603Z" fill="#1A0905"/>
<path d="M62.5025 82.1769C62.4384 78.0335 65.7421 74.5996 69.8815 74.507C74.0208 74.4144 77.4283 77.6983 77.4924 81.8417L69.9975 82.0093L62.5025 82.1769ZM77.4992 82.282L77.6152 89.7842L62.6253 90.1195L62.5093 82.6172L70.0043 82.4496L77.4992 82.282ZM69.9975 82.0093L77.4924 81.8417L77.4992 82.282L70.0043 82.4496L62.5093 82.6172L62.5025 82.1769L69.9975 82.0093Z" fill="#1A0905"/>
<path d="M72.2931 83.6296C69.8261 80.2881 70.4323 75.4765 73.6471 72.8825C76.8619 70.2886 81.4678 70.8945 83.9348 74.236L78.1139 78.9328L72.2931 83.6296ZM84.1922 74.5847L88.659 80.6349L77.0173 90.0285L72.5505 83.9783L78.3714 79.2815L84.1922 74.5847ZM78.1139 78.9328L83.9348 74.236L84.1922 74.5847L78.3714 79.2815L72.5505 83.9783L72.2931 83.6296L78.1139 78.9328Z" fill="#1A0905"/>
<path d="M56.6538 74.0838C59.1956 70.8268 63.823 70.3648 66.9894 73.0518C70.1558 75.7388 70.6621 80.5574 68.1203 83.8143L62.3871 78.949L56.6538 74.0838ZM67.854 84.1556L63.2516 90.0528L51.7851 80.3223L56.3875 74.4251L62.1207 79.2903L67.854 84.1556ZM62.3871 78.949L68.1203 83.8143L67.854 84.1556L62.1207 79.2903L56.3875 74.4251L56.6538 74.0838L62.3871 78.949Z" fill="#1A0905"/>
<path d="M67.4881 54.425C70.1162 57.6421 69.7477 62.4785 66.6652 65.2273C63.5826 67.9761 58.9533 67.5965 56.3253 64.3793L61.9067 59.4022L67.4881 54.425ZM56.0516 64.0443L51.2931 58.2192L62.456 48.2648L67.2144 54.09L61.633 59.0671L56.0516 64.0443ZM61.9067 59.4022L56.3253 64.3793L56.0516 64.0443L61.633 59.0671L67.2144 54.09L67.4881 54.425L61.9067 59.4022Z" fill="#1A0905"/>
<defs>
<filter id="filter0_g_163_572" x="214.014" y="132.998" width="17.6748" height="11.0398" filterUnits="userSpaceOnUse" color-interpolation-filters="sRGB">
<feFlood flood-opacity="0" result="BackgroundImageFix"/>
<feBlend mode="normal" in="SourceGraphic" in2="BackgroundImageFix" result="shape"/>
<feTurbulence type="fractalNoise" baseFrequency="0.99900001287460327 0.99900001287460327" numOctaves="3" seed="2366" />
<feDisplacementMap in="shape" scale="6" xChannelSelector="R" yChannelSelector="G" result="displacedImage" width="100%" height="100%" />
<feMerge result="effect1_texture_163_572">
<feMergeNode in="displacedImage"/>
</feMerge>
</filter>
<filter id="filter1_g_163_572" x="112.213" y="114.716" width="15.2422" height="16.0547" filterUnits="userSpaceOnUse" color-interpolation-filters="sRGB">
<feFlood flood-opacity="0" result="BackgroundImageFix"/>
<feBlend mode="normal" in="SourceGraphic" in2="BackgroundImageFix" result="shape"/>
<feTurbulence type="fractalNoise" baseFrequency="0.99900001287460327 0.99900001287460327" numOctaves="3" seed="2366" />
<feDisplacementMap in="shape" scale="6" xChannelSelector="R" yChannelSelector="G" result="displacedImage" width="100%" height="100%" />
<feMerge result="effect1_texture_163_572">
<feMergeNode in="displacedImage"/>
</feMerge>
</filter>
<filter id="filter2_g_163_572" x="8.24707" y="131.711" width="17.1357" height="13.6157" filterUnits="userSpaceOnUse" color-interpolation-filters="sRGB">
<feFlood flood-opacity="0" result="BackgroundImageFix"/>
<feBlend mode="normal" in="SourceGraphic" in2="BackgroundImageFix" result="shape"/>
<feTurbulence type="fractalNoise" baseFrequency="0.99900001287460327 0.99900001287460327" numOctaves="3" seed="2366" />
<feDisplacementMap in="shape" scale="6" xChannelSelector="R" yChannelSelector="G" result="displacedImage" width="100%" height="100%" />
<feMerge result="effect1_texture_163_572">
<feMergeNode in="displacedImage"/>
</feMerge>
</filter>
<filter id="filter3_g_163_572" x="10.2188" y="13.5367" width="11.4844" height="12.7581" filterUnits="userSpaceOnUse" color-interpolation-filters="sRGB">
<feFlood flood-opacity="0" result="BackgroundImageFix"/>
<feBlend mode="normal" in="SourceGraphic" in2="BackgroundImageFix" result="shape"/>
<feTurbulence type="fractalNoise" baseFrequency="0.99900001287460327 0.99900001287460327" numOctaves="3" seed="2366" />
<feDisplacementMap in="shape" scale="6" xChannelSelector="R" yChannelSelector="G" result="displacedImage" width="100%" height="100%" />
<feMerge result="effect1_texture_163_572">
<feMergeNode in="displacedImage"/>
</feMerge>
</filter>
<filter id="filter4_g_163_572" x="217.229" y="11.0526" width="11.0059" height="17.5579" filterUnits="userSpaceOnUse" color-interpolation-filters="sRGB">
<feFlood flood-opacity="0" result="BackgroundImageFix"/>
<feBlend mode="normal" in="SourceGraphic" in2="BackgroundImageFix" result="shape"/>
<feTurbulence type="fractalNoise" baseFrequency="0.99900001287460327 0.99900001287460327" numOctaves="3" seed="2366" />
<feDisplacementMap in="shape" scale="6" xChannelSelector="R" yChannelSelector="G" result="displacedImage" width="100%" height="100%" />
<feMerge result="effect1_texture_163_572">
<feMergeNode in="displacedImage"/>
</feMerge>
</filter>
</defs>
</svg>
